# xmcd
#
# Track frame offsets: 
#        150
#        11391
#        33281
#        45717
#        67946
#        79091
#        102730
#        122526
#        134781
#
# Disc length: 2137 seconds
#
# Revision: 1
# Processed by: cddbd v1.5.2PL0 Copyright (c) Steve Scherf et al.
# Submitted via: ExactAudioCopy v0.99pb3
#
DISCID=73085709
DTITLE=Ray Barretto - Hard Hands
DYEAR=1998
DGENRE=Jazz
TTITLE0=Hard Hands
TTITLE1=Abidjan
TTITLE2=Love Beads
TTITLE3=Mi Ritmo Te LLama
TTITLE4=Got To Have You
TTITLE5=Son Con Cuero
TTITLE6=Mirame De Frente
TTITLE7=New York Soul
TTITLE8=Ahora Si
EXTD=YEAR: 2006
EXTT0=
EXTT1=
EXTT2=
EXTT3=
EXTT4=
EXTT5=
EXTT6=
EXTT7=
EXTT8=
PLAYORDER=
